<svg width="16" height="16" viewBox="0 0 16 16" fill="none" xmlns="http://www.w3.org/2000/svg">
<path d="M2.78001 10.2L5.80001 13.22C7.04001 14.46 9.05334 14.46 10.3 13.22L13.2267 10.2934C14.4667 9.05337 14.4667 7.04003 13.2267 5.79337L10.2 2.78003C9.56668 2.1467 8.69334 1.8067 7.80001 1.85337L4.46668 2.01337C3.13334 2.07337 2.07334 3.13337 2.00668 4.46003L1.84668 7.79337C1.80668 8.69337 2.14668 9.5667 2.78001 10.2Z" stroke="#6D6D6D" stroke-linecap="round" stroke-linejoin="round"/>
<path d="M6.33341 8.00005C7.25389 8.00005 8.00008 7.25386 8.00008 6.33338C8.00008 5.41291 7.25389 4.66672 6.33341 4.66672C5.41294 4.66672 4.66675 5.41291 4.66675 6.33338C4.66675 7.25386 5.41294 8.00005 6.33341 8.00005Z" stroke="#6D6D6D" stroke-linecap="round"/>
</svg>
